<svg xmlns="http://www.w3.org/2000/svg" xml:space="preserve" viewBox="0 0 1080 1080"><circle cx="537.812" cy="574.485" r="400" fill="#F7F7F7"/><path fill="#D3D3D3" d="M1031 881.578c0 13.115-10.631 23.746-23.746 23.746H110.746C97.631 905.324 87 894.693 87 881.578c0-13.115 10.631-23.746 23.746-23.746h896.508c13.115 0 23.746 10.632 23.746 23.746z"/><path fill="#FA968C" d="M723.925 265.336c.169-2.836 5.075-8.613 4.327-9.336-.538-.52-2.448 1.265-3.48 2.31a.438.438 0 0 1-.747-.272c-.225-2.787-.921-10.585-1.699-10.658-.788-.074-1.183 4.859-1.293 6.515a.106.106 0 0 1-.092.098.105.105 0 0 1-.114-.07c-.607-1.753-2.652-7.409-3.529-6.683-.834.691.461 6.108.997 8.193a.107.107 0 0 1-.063.125.107.107 0 0 1-.132-.046c-1.056-1.867-3.841-6.602-4.592-5.997-.766.617 1.392 5.748 2.19 7.569a.106.106 0 0 1-.04.132.105.105 0 0 1-.136-.019c-1.206-1.362-4.362-4.833-4.345-3.813.022 1.261 5.567 11.746 7.383 13.501 1.817 1.754 5.365-1.549 5.365-1.549z"/><path fill="#FA968C" d="M773.709 300.432c-3.759 8.328-9.168 17.787-15.708 24.279-12.725 12.595-29.057 9.304-34.757-20.15-.992-4.439-1.684-8.857-2.266-13.268-1.185-8.811-1.643-17.596-2.049-26.354a2.404 2.404 0 0 1 4.756-.59l.01.049c1.725 8.502 3.459 16.988 5.682 25.243 1.143 4.112 2.329 8.191 3.709 12.123 1.197 3.723 6.007 15.291 9.747 16.424.123-.021.246.14.317.071.068-.064.103-.069.147-.032.07-.092.118-.133.178-.121.206-.165.447-.194.89-.554.815-.534 1.93-1.589 2.99-2.904 2.171-2.573 4.192-5.973 5.97-9.502 3.085-5.986 4.873-10.29 4.873-10.29 3.798-10.413 19.55-5.427 15.747 5a9.39 9.39 0 0 1-.236.576z"/><path fill="#2A94F4" d="m748.465 311.639.043-.061a103.159 103.159 0 0 0 5.346-8.762c1.628-2.94 3.288-6.207 4.449-8.987l.058-.139a8.395 8.395 0 1 1 15.169 7.162c-2.026 3.848-3.986 6.995-6.227 10.307-1.516 2.186-3.128 4.306-4.79 6.395-1.238-1.321-11.092-4.855-14.048-5.915z"/><path fill="#FAB9AF" d="M756.686 369.943c7.304 8.38 49.463 11.878 49.463 11.878 3.111-3.611-1.437-20.025-2.534-36.685-1.186-18.014-1.869-37.897-2.182-48.64a8.189 8.189 0 0 0-8.194-7.951h-26.753a7.908 7.908 0 0 0-7.896 7.256c-.702 8.506-1.923 23.291-3.128 37.784-1.223 14.707-5.089 29.114 1.224 36.358z"/><path fill="#FA968C" d="m781.007 509.995-.061 16.581 1.44 8.076a2.317 2.317 0 0 1-2.205 2.735c-6.788.208-24.169.667-24.635-.087-2.186-3.535 7.693-4.896 14.921-7.693 7.227-2.797 2.24-30.239 2.24-30.239l8.3 10.627z"/><path fill="#F57A2F" d="M770.466 529.607c.039-.015.072-.041.11-.057 1.722.644 3.66 1.021 5.844 1.021 1.873 0 3.571-.271 5.103-.75l.862 4.831a2.317 2.317 0 0 1-2.205 2.735c-6.788.208-24.169.667-24.635-.087-2.184-3.535 7.694-4.896 14.921-7.693z"/><path fill="#0091C8" d="M756.697 375.986c-.261 11.525 4.272 84.643 13.225 84.846 8.954.203 18.937-72.586 19.199-84.111.261-11.525-6.785-21.032-15.739-21.236-8.953-.202-16.423 8.976-16.685 20.501z"/><path fill="#0B4870" d="M782.289 445.643c.889 6.344 1.032 46.99-.395 67.639h-8.151c-4.377-20.03-9.056-58.85-9.924-65.052-.011-.079-.016-.157-.026-.236-4.871-21.549-7.288-63.511-7.096-72.009.261-11.525 7.732-20.703 16.686-20.5 8.954.203 16 9.711 15.738 21.236-.164 7.236-7.252 65.918-6.832 68.922z"/><path fill="#FA968C" d="m800.569 509.995-.061 16.581 1.44 8.076a2.317 2.317 0 0 1-2.205 2.735c-6.788.208-24.17.667-24.635-.087-2.186-3.535 7.693-4.896 14.92-7.693 7.227-2.797 2.24-30.239 2.24-30.239l8.301 10.627z"/><path fill="#FF8C46" d="M790.029 529.607c.039-.015.072-.041.11-.057 1.722.644 3.66 1.021 5.845 1.021 1.873 0 3.571-.271 5.103-.75l.862 4.831a2.317 2.317 0 0 1-2.205 2.735c-6.788.208-24.169.667-24.635-.087-2.186-3.535 7.693-4.896 14.92-7.693z"/><path fill="#0091C8" d="M776.26 375.986c-.262 11.525 4.272 84.643 13.225 84.846 8.954.203 17.001-72.854 17.262-84.379.261-11.525-4.848-20.764-13.802-20.967-8.954-.203-16.424 8.975-16.685 20.5z"/><path fill="#0B4870" d="M801.852 445.643c.889 6.344 1.032 46.99-.395 67.639h-8.151c-4.377-20.03-9.056-58.85-9.924-65.052-.011-.079-.015-.157-.026-.236-4.871-21.549-9.225-63.779-9.032-72.277.261-11.525 9.668-20.434 18.622-20.231 8.954.203 14.063 9.442 13.802 20.967-.165 7.235-5.317 66.186-4.896 69.19z"/><path fill="#e75d48" d="M766.232 288.546h4.347c1.514 3.504 4.716 6.211 9.685 6.211 4.977 0 8.179-2.707 9.69-6.211h3.967c4.056 0 7.376 3.207 7.492 7.262.303 10.564.99 30.922 2.202 49.329 1.097 16.66 5.646 32.143 2.534 36.685 0 0-42.159-3.498-49.463-11.878-6.314-7.244-2.447-21.651-1.225-36.357 1.217-14.635 2.45-29.566 3.148-38.031a7.64 7.64 0 0 1 7.623-7.01z"/><path fill="#0B4870" d="m781.416 278.809.501.111a7.084 7.084 0 0 0 8.453-5.378l2.273-10.22-7.417-1.649-3.81 17.136z"/><path fill="#FAB9AF" d="M774.791 288.545h13.988l-4.033-13.946-9.535 1.18z"/><path fill="#FA968C" d="m775.211 275.779 9.535-1.18 1.879 6.499c-2.134 2.407-5.301 6.142-8.77 6.142a5.522 5.522 0 0 1-3.006-.883l.362-10.578z"/><path fill="#FAB9AF" d="M773.767 283.192c6.281 1.397 12.504-2.562 13.901-8.843l2.817-12.668-19.504-4.337s-2.199 9.889-2.263 16.88c-.048 5.243 1.848 8.256 5.049 8.968z"/><path fill="#41378C" d="m790.047 268.4-3.665-.815.37-1.662 3.665.815z"/><path fill="#FAB9AF" d="M784.894 271.217c-.55 2.472.188 4.739 1.648 5.063 1.459.324 3.789-2.558 4.339-5.029.55-2.472-.889-3.597-2.349-3.922-1.46-.324-3.089 1.416-3.638 3.888z"/><path fill="#0B4870" d="M768.469 262.252c-.105-1.679.168-3.36.8-4.919 1.568-3.869 5.9-5.534 9.843-4.161.403.14.83.263 1.281.363l6.583 1.461a7.336 7.336 0 0 1 5.571 8.754l-.341 1.535-3.903 2.263-1.591 2.771-.258-.057a2.425 2.425 0 0 1-1.87-2.739c.324-2.068-.705-4.089-2.748-4.543l-5.842-1.299c-3.557-.791-5.83.707-6.421 3.368l-.318 2.291-.786-5.088z"/><g fill="none" stroke="#00AEF0" stroke-miterlimit="10" stroke-width="2"><path d="m787.125 337.424 96.252 535.574M803.346 872.998l-96.251-535.574M713.471 361.281h78.226M718.671 397.117h79.318M725.901 432.953h78.609M732.892 468.788h78.14M737.128 504.624h79.046M742.608 539.821h80.144M750.646 576.295h78.916M757.088 612.131h79.131M763.454 645.996h79.132M768.866 679.862h79.131M775.084 713.727h79.131M781.122 747.592h79.131M787.011 781.458h79.131M793.856 815.323h79.131"/></g><g fill="none" stroke="#00AEF0" stroke-miterlimit="10" stroke-width="2"><path d="m707.095 337.424-97.068 536.792M690.057 874.216l97.068-536.792M780.749 361.281h-77.996M775.549 397.117h-79.318M768.319 432.953h-78.61M761.328 468.788h-78.14M755.712 504.624h-79.046M750.405 539.821h-80.144M742.539 576.295h-78.916M737.132 612.131h-79.131M731.041 652.33H651.91M721.835 692.529h-79.131M714.965 732.729h-79.131M708.485 772.928h-79.131M700.058 813.517h-79.132"/></g><path fill="#0B4870" d="M788.167 257.634c.446 3.614-12.541 8.192-15.967 8.616-3.425.423-6.564-2.163-7.01-5.777-.446-3.614 1.968-6.886 5.394-7.309 3.425-.424 17.136.856 17.583 4.47z"/><path fill="#FFBE55" d="M608.69 263.119a7.643 7.643 0 0 0-6.196 8.857l7.064 39.954 2.651-.469c2.448-5.24 7.762-9.024 14.318-8.964 6.204.056 11.918 4.007 14.144 9.799 3.626 9.435-2.294 19.302-11.724 20.969-5.17.914-10.188-.857-13.643-4.302l-2.65.469 7.814 44.197a7.643 7.643 0 0 0 8.857 6.196l39.954-7.064-.485-2.744c-5.241-2.448-9.024-7.762-8.964-14.319.057-6.204 4.008-11.918 9.799-14.143 9.436-3.625 19.301 2.295 20.969 11.724.914 5.17-.857 10.187-4.302 13.644l.485 2.744 44.197-7.814a7.644 7.644 0 0 0 6.196-8.858L719.2 251.343a7.644 7.644 0 0 0-8.858-6.196L608.69 263.119z"/><path fill="#FAB9AF" d="M803.007 302.183c-4.307 5.872-11.693 13.595-20.536 20.263-27.044 19.723-55.987 21.717-79.59-.608a2.406 2.406 0 0 1 2.855-3.834l.109.063c15.393 8.884 29.175 12.532 46.527 5.241 22.748-9.803 38.887-33.386 37.188-31.136a8.382 8.382 0 0 1 13.447 10.011z"/><path fill="#2A94F4" d="M777.15 305.715c5.633-5.055 12.794-15.014 12.794-15.014s3.395-4.013 10.382-1.087c5.58 2.337 4.45 8.929 4.45 8.929-.135.918-2 11.793-14.829 21.41 0 0-13.742-13.39-12.797-14.238z"/><path fill="#FAB9AF" d="M707.449 319.082c-1.849-2.157-2.336-9.72-3.376-9.72-.748 0-.881 2.611-.897 4.079a.437.437 0 0 1-.727.323c-2.098-1.848-8.018-6.971-8.629-6.483-.618.495 2.526 4.316 3.598 5.583a.107.107 0 0 1 .002.134.105.105 0 0 1-.131.029c-1.654-.838-7.056-3.484-7.182-2.352-.12 1.077 4.576 4.072 6.41 5.198a.105.105 0 0 1 .041.133.107.107 0 0 1-.127.059c-2.057-.608-7.35-2.078-7.469-1.121-.122.975 4.995 3.166 6.835 3.92a.105.105 0 0 1-.048.203c-1.814-.142-6.495-.444-5.774.278.892.892 12.166 4.577 14.692 4.577 2.527.001 2.782-4.84 2.782-4.84z"/><path fill="#2A94F4" d="M267.532 446.998h534.875v325.448H267.532z"/><path fill="#F7F7F7" d="M294.662 471.371h480.614v276.701H294.662z"/><g fill="none" stroke="#727272" stroke-miterlimit="10"><path d="M325.957 540.987h123.155v176.459H325.957zM476.884 540.987h123.154v176.459H476.884zM627.811 540.987h123.155v176.459H627.811z"/></g><path fill="#FA968C" d="M220.283 820.274s-10.978 12.636-12.994 14.647c-1.665 1.661-4.026 2.266-6.29 2.902-.725.204-1.667.948-2.464 1.574-.641.503-.934 1.286-.919 2.1.26 14.225 12.641 24.195 13.3 23.362 1.19-1.503.283-5.668-2.085-8.415-2.383-2.765-2.961-6.664-1.898-10.156a16.902 16.902 0 0 1 4.493-7.298l9.546-8.935-.689-9.781zM332.506 838.245l8.733 14.592a21.766 21.766 0 0 1 2.769 14.866v.002c-.499 2.866 1.652 5.506 4.561 5.578 9.402.233 27.596.572 28.12-.284 2.674-4.363-8.834-6.316-17.871-9.378-6.095-2.065-13.595-18.564-18.349-31.547l-7.127 4.514a1.893 1.893 0 0 0-.836 1.657z"/><path fill="#0B4870" d="M358.64 868.646c3.861 0 7.802-.886 11.444-1.606a2.378 2.378 0 0 1 1.254.089c4.214 1.496 6.769 3.556 5.351 5.87-.57.93-21.972.45-30.331.227-1.748-.047-3.028-1.634-2.728-3.357l.547-3.137c4.727 1.204 9.571 1.914 14.463 1.914zM301.258 673.445c-9.654-1.933-21.187 5.975-23.676 18.402-1.43 7.141-3.536 33.745-3.237 55.456.115 8.332-3.885 16.349-11.004 20.681-1.16.706-2.223 1.483-3.147 2.327-4.764 4.35-26.921 32.123-40.809 50.967-.434 2.946.002 7.021 1.649 8.958 17.776-13.929 47.918-40.156 52.986-44.783 2.814-2.57 5.959-5.58 8.52-8.542 10.92-7.319 28.643-63.194 30.952-74.724 2.488-12.428-2.579-26.809-12.234-28.742z"/><ellipse cx="295.234" cy="592.871" fill="#0B4870" rx="15.019" ry="19.375"/><path fill="#0B4870" d="M291.631 594.87c-.239-10.724-8.921-19.738-19.631-20.35-9.5-.543-17.703 5.278-20.774 13.59-1.076 2.913-3.931 4.809-7.036 4.763a18.353 18.353 0 0 0-3.966.376c-7.849 1.608-13.942 8.238-14.769 16.207-.746 7.188 2.618 13.637 8.024 17.316 2.305 1.569 3.617 4.17 3.999 6.933 1.769 12.782 13.44 22.17 26.754 20.713 11.387-1.246 20.5-10.617 21.469-22.031.594-7.002-1.809-13.423-6.036-18.191 7.204-3.403 12.157-10.787 11.966-19.326z"/><path fill="#2A94F4" d="M424 597.578c-3.794-.812-7.283.804-9.231 3.58h-2.251v-20.75a6.889 6.889 0 0 0-6.889-6.889h-23.22v-2.305c2.776-1.948 4.392-5.438 3.58-9.231-.699-3.267-3.325-5.943-6.582-6.686-5.816-1.327-10.977 3.056-10.977 8.645 0 3.01 1.5 5.665 3.79 7.272v2.305h-20.75a6.89 6.89 0 0 0-6.889 6.889v20.75h1.543c1.948-2.776 5.436-4.391 9.229-3.581 3.267.698 5.944 3.323 6.688 6.58 1.329 5.817-3.055 10.979-8.645 10.979-3.01 0-5.665-1.5-7.272-3.79h-1.543v23.22a6.89 6.89 0 0 0 6.889 6.889h20.75v-1.597c-2.776-1.948-4.392-5.437-3.58-9.231.699-3.267 3.324-5.943 6.581-6.686 5.816-1.327 10.977 3.056 10.977 8.645 0 3.01-1.5 5.665-3.79 7.272v1.597h23.22a6.889 6.889 0 0 0 6.889-6.889v-23.22h2.251a8.867 8.867 0 0 0 7.272 3.79c5.589 0 9.973-5.161 8.645-10.977-.742-3.256-3.418-5.881-6.685-6.581z" opacity=".4"/><path fill="#0B4870" d="M295.234 567.14s8.451 5.318 7.423 12.483c0 0 4.513-3.196 5.534-14.206.708-7.628-12.957 1.723-12.957 1.723z"/><path fill="#FAB9AF" d="m310.783 610.745-.01 1.074c-.003.7.005 1.538.055 2.784a58.287 58.287 0 0 0 1.327 9.935c.462 2.006 1.076 4.151 1.938 6.265.863 2.094 1.967 4.222 3.361 5.816.688.802 1.442 1.423 2.156 1.786.722.359 1.364.506 2.142.397 1.561-.149 3.649-1.655 5.39-3.589 1.776-1.948 3.328-4.33 4.726-6.758 1.394-2.443 2.615-4.986 3.721-7.491 2.194-5.026 3.922-9.914 5.298-14.138a291.086 291.086 0 0 0 3.166-10.294l1.103-3.944.005-.018a1.3 1.3 0 0 1 2.531.588l-.753 4.063c-.257 1.29-.55 2.861-.936 4.655a166.285 166.285 0 0 1-1.351 6.021c-1.075 4.398-2.456 9.513-4.348 14.927-.959 2.704-2.04 5.484-3.359 8.264-1.336 2.774-2.841 5.573-4.897 8.222-1.035 1.319-2.202 2.609-3.648 3.76-1.441 1.134-3.203 2.167-5.339 2.615-2.107.493-4.5.198-6.398-.62-1.929-.811-3.446-2-4.674-3.235-2.46-2.496-4.006-5.193-5.24-7.77-1.219-2.586-2.076-5.088-2.746-7.417-1.326-4.661-1.812-8.645-2.071-11.436a70.257 70.257 0 0 1-.202-3.281l-.035-1.074a4.545 4.545 0 0 1 9.086-.298c.002.058.002.133.002.191z"/><path fill="#FAB9AF" d="M304.693 647.923c3.381-10.189 10.183-31.765 9.601-38.817-.373-4.518-4.147-7.978-8.681-7.978h-29.412a9.002 9.002 0 0 0-9.008 8.741c-.248 8.519 3.677 27.907 5.884 38.054h31.616zM298.894 693.925c3.382 12.214 30.883 99.038 21.394 101.665-9.489 2.628-61.134-82.141-61.793-94.797-.626-12.005 6.332-25.011 15.821-27.639 9.489-2.627 21.196 8.557 24.578 20.771z"/><path fill="#0B4870" d="M341.419 835.531c.351-.412.432-.992.248-1.501-7.354-20.354-17.222-46.135-19.327-51.006a30.481 30.481 0 0 0-.762-1.63c-3.591-25.74-20.111-78.18-22.683-87.469-3.382-12.214-15.089-23.398-24.578-20.771-9.489 2.628-16.447 15.634-15.821 27.639.413 7.922 20.799 44.092 38.32 69.403 3.688 5.328 6.005 11.446 7.132 17.828.779 4.413 2.026 8.814 3.417 12.035 2.071 4.793 14.224 23.088 25.081 38.604.314.449.842.713 1.388.657 2.879-.294 5.601-1.46 7.585-3.789z"/><path fill="#e75d48" d="M269.712 660.84a27.962 27.962 0 0 0 1.34-13.332c-1.484-10.424-4.077-30.061-3.838-38.396.128-4.457 3.778-7.983 8.237-7.983h4.361c1.661 3.853 5.181 6.829 10.653 6.829 5.463 0 8.984-2.976 10.648-6.829h4.095c-4.451 9.529-2.85 22.098 4.806 29.433-1.423 5.029-2.619 10.09-3.515 14.192a27.749 27.749 0 0 0 1.511 16.596c3.76 9.022 6.738 23.489 5.851 29.222-30.94 8.769-52.335-6.751-52.335-6.751l8.186-22.981z"/><path fill="#FAB9AF" d="m295.234 603.153-13.343-1.402 4.222-14.601 8.63 1.069z"/><path fill="#FA968C" d="m294.743 588.219-8.63-1.068-1.318 4.558c1.932 2.178 4.415 6.883 7.555 6.883.996 0 1.904-.281 2.72-.799l-.327-9.574z"/><path fill="#FAB9AF" d="M295.041 595.277c-2.931-.001-6.1-1.467-10.465-5.281-2.506-2.19-4.364-6.008-4.364-8.588V567.14h21.967s1.649 7.576.048 15.094c-1.2 5.639-4.882 13.043-7.186 13.043z"/><path fill="#FAB9AF" d="M283.937 578.71c0 2.784-1.333 5.04-2.976 5.04-1.644 0-3.456-3.649-3.456-6.433s1.813-3.648 3.456-3.648 2.976 2.257 2.976 5.041z"/><path fill="#0B4870" d="M277.504 568.868a8.065 8.065 0 0 1 8.068-8.065l7.414.003c2.12.001 4.177-.554 5.981-1.577 2.616-1.484 5.923-.99 7.708 1.431 1.929 2.617 2.764 6.121-2.128 9.366-2.432 1.613-5.987-.174-8.356.601-.146-.006-.276-.03-.428-.03h-6.535c-2.271 0-4.009 1.856-4.074 4.127a2.666 2.666 0 0 1-2.664 2.587h-.29l-1.046-3.353-3.648 4.919v-10.009z"/><path fill="#FAB9AF" d="M349.681 584.624s1.535 7.584-.625 8.82c-2.159 1.236-3.835 1.67-5.752-1.406-1.916-3.076-3.08-8.208-3.161-11.426-.082-3.217 2.058-8.667 2.672-9.099 2.237-1.574 1.772 4.27 1.685 7.11-.087 2.841.098 6.057 1.476 5.712 1.379-.345 1.136-5.797 2.585-6.715 1.45-.916 1.12 7.004 1.12 7.004zM382.454 636.203s-7.636-1.247-8.789.958c-1.153 2.205-1.523 3.896 1.622 5.694 3.146 1.799 8.319 2.767 11.537 2.727 3.218-.04 8.583-2.385 8.991-3.015 1.488-2.294-4.334-1.609-7.169-1.415-2.835.194-6.057.132-5.764-1.259.292-1.391 5.75-1.354 6.612-2.837.862-1.482-7.04-.853-7.04-.853z"/><path fill="#0B4870" d="M300.541 566.89c-.736 3.26.35 5.042-10.334 10.13-10.684 5.087-14.066 2.914-17.403 8.391 0 0 1.459-9.073 7.36-12.187 5.901-3.114 16.135-5.149 19.417-12.36.001-.001 1.464 3.798.96 6.026z"/><path fill="#FAB9AF" d="M277.425 609.992s.027.159.035.17l.051.206c.025.103.054.224.104.38a18.42 18.42 0 0 0 1.059 2.734 26.48 26.48 0 0 0 2.502 4.171c1.117 1.554 2.591 3.201 4.371 4.861.87.85 1.892 1.633 2.922 2.472 1.093.773 2.195 1.61 3.438 2.344 1.19.802 2.537 1.459 3.855 2.224l2.089 1.025c.699.354 1.418.69 2.169.987l2.245.944c.766.294 1.553.561 2.337.847 1.556.6 3.201 1.052 4.841 1.555 1.637.513 3.349.863 5.037 1.31 1.703.4 3.438.732 5.163 1.105 1.739.319 3.493.583 5.235.878 1.749.261 3.508.442 5.246.667 1.737.239 3.484.316 5.2.48l2.564.206 2.537.118c1.679.064 3.329.209 4.95.231l4.755.094c3.093.069 6.023-.045 8.73-.055l7.393-.255c2.206-.051 4.121-.232 5.704-.317l4.977-.295.036-.002a1.3 1.3 0 0 1 .285 2.582l-4.962.805c-1.583.232-3.497.59-5.713.847-2.215.267-4.71.641-7.447.915-2.742.224-5.708.57-8.864.746l-4.86.281c-1.659.099-3.362.104-5.091.145l-2.617.042-2.659-.044c-1.785-.057-3.594-.026-5.419-.158-1.824-.118-3.666-.193-5.515-.351-1.847-.192-3.706-.355-5.562-.576-1.852-.281-3.713-.506-5.557-.836-1.836-.39-3.681-.683-5.486-1.153-1.807-.46-3.611-.87-5.363-1.447-.879-.273-1.757-.528-2.621-.814l-2.556-.933c-.85-.294-1.68-.633-2.495-.996l-2.428-1.055c-1.571-.789-3.121-1.529-4.562-2.42-1.473-.819-2.832-1.772-4.161-2.665-1.285-.973-2.543-1.891-3.663-2.911-2.272-1.985-4.211-4.03-5.701-6.063a35.427 35.427 0 0 1-3.461-5.614 24.819 24.819 0 0 1-1.614-4.142c-.289-.965-.446-1.916-.421-1.783a4.544 4.544 0 0 1 3.739-5.227 4.547 4.547 0 0 1 5.229 3.74z"/><path fill="#0B4870" d="M298.487 567.497s.405 10.98 10 16.253c0 0-4.228-8.298-3.94-13.724.287-5.426-6.694-6.278-6.06-2.529zM193.03 843.94a1.957 1.957 0 0 1 .811-2.416c.679-.404 2.502-1.528 3.872-2.371.595-.366 1.341.024 1.42.719.889 7.857 4.451 14.977 11.134 18.372 1.744 2.327 1.992 6.304 1.05 7.493-.221.279-3.351-.755-5.976-3.763-11.658-13.353-12.311-18.034-12.311-18.034z"/><path fill="#FAB9AF" d="M901.524 802.932c-.462-.094-.912-.187-1.319-.273-1.095-.232-2.497-.206-3.733-.103a11.431 11.431 0 0 1-6.019-1.124l-7.733-3.811c-3.266-1.609-6.765 1.726-5.315 5.065.124.286.352.516.637.642l9.148 4.055a18.326 18.326 0 0 1 6.814 5.219l2.593 3.201c5.515-3.446 4.747-9.676 4.927-12.871z"/><path fill="#0B4870" d="M898.171 829.565c.373-4.393-1.617-11.668-2.557-14.102 2.359-4.337 2.439-8.993 1.006-13.183 1.211-.097 2.559-.12 3.625.106 1.465.311 4.853.834 6.245 1.104a2.022 2.022 0 0 1 1.634 2.066s-4.378 31.688-5.349 31.085c-1.684-1.044-4.923-3.33-4.604-7.076z"/><path fill="#41B4E6" d="M732.837 771.581c-2.456 9.719-19.74 86.181-16.325 86.252 2.962.061 34.42-71.34 36.876-81.059 2.456-9.719-.154-18.76-5.829-20.194-5.675-1.434-12.267 5.282-14.722 15.001z"/><path fill="#41B4E6" d="M770.691 693.939c-8.31 10.129-45.442 76.537-37.573 82.993 7.869 6.456 59.346-48.525 67.656-58.654 8.31-10.129 7.082-24.534-.787-30.99-7.87-6.456-20.986-3.478-29.296 6.651z"/><path fill="#FAB9AF" d="M720.849 868.455c.026-.471.051-.929.077-1.345.069-1.117-.162-2.5-.445-3.707a11.43 11.43 0 0 1 .23-6.119l2.635-8.208c1.113-3.466-2.699-6.439-5.79-4.515a1.25 1.25 0 0 0-.542.724l-2.669 9.644a18.327 18.327 0 0 1-4.163 7.505l-2.786 3.034c4.217 4.95 10.267 3.278 13.453 2.987z"/><path fill="#0B4870" d="M694.013 869.043c4.4-.275 11.305-3.31 13.575-4.597 4.636 1.697 9.253 1.094 13.188-.938.273 1.184.494 2.514.427 3.602-.093 1.495-.114 4.923-.176 6.339a2.022 2.022 0 0 1-1.804 1.92s-31.988.316-31.534-.733c.786-1.82 2.571-5.358 6.324-5.593zM753.388 776.774c-1.518 6.007-20.301 52.58-30.401 74.277-3.041-1.161-4.741-1.066-7.844-2.041 3.956-20.378 11.033-65.872 13.363-75.689 1.018-13.68 34.482-69.991 42.186-79.381 8.31-10.129 21.426-13.107 29.296-6.651 7.869 6.456 9.097 20.86.787 30.99-5.377 6.552-46.361 54.434-47.387 58.495z"/><path fill="#0B4870" d="m793.676 777.169-.011-.008c-.007-.014-.013-.032-.02-.045a9.972 9.972 0 0 1-.768-1.933c-5.544-16.425-3.958-76.067-2.16-88.168a31 31 0 0 1 2.725-8.879l17.673 9.617a67.285 67.285 0 0 0 15.651 13.072c.898.542-.304-1.806.615-1.325-2.548 15.691-5.869 46.817-7.118 62.383a8.196 8.196 0 0 0 4.993 8.223c16.47 6.919 45.845 20.364 62.213 29.198l-.557 9.269c-23.895-5.007-71.627-19.198-78.875-21.314-6.839-2-12.154-5.929-14.361-10.09z"/><path fill="#FA968C" d="m774.266 626.561-.016.312-.027.448-.045.53a42.625 42.625 0 0 1-.438 3.33c-.225 1.409-.585 3.089-1.084 4.993-.491 1.905-1.208 4.009-2.102 6.259a55.601 55.601 0 0 1-3.501 7.005 48.477 48.477 0 0 1-5.234 7.031c-.505.568-1.065 1.098-1.602 1.653l-.818.825-.878.774c-.592.511-1.175 1.039-1.784 1.539l-1.904 1.421c-.624.493-1.304.909-1.98 1.332-.679.417-1.341.867-2.039 1.254-1.428.712-2.806 1.539-4.295 2.105l-2.196.921c-.742.272-1.496.504-2.24.755-.75.231-1.481.525-2.239.699l-2.253.558c-1.487.416-2.996.604-4.47.87-1.472.295-2.943.374-4.38.53-.719.061-1.431.159-2.137.177l-2.096.057c-1.382.035-2.731.099-4.039.018l-3.806-.138-3.53-.326c-2.266-.162-4.307-.542-6.122-.813-.906-.147-1.756-.26-2.534-.407l-2.131-.442-4.035-.838a1.343 1.343 0 0 1 .416-2.651l.07.008 4.012.448 2.11.236c.768.073 1.603.104 2.491.164 1.778.104 3.778.266 5.959.246l3.395.031 3.614-.172c1.242-.024 2.5-.194 3.787-.334l1.948-.215c.655-.069 1.302-.223 1.962-.326 1.312-.245 2.662-.413 3.975-.786 1.318-.345 2.676-.609 3.972-1.087l1.97-.646c.663-.202 1.282-.516 1.926-.767.636-.27 1.282-.52 1.911-.805l1.838-.943c1.253-.576 2.363-1.388 3.535-2.069.57-.366 1.099-.788 1.649-1.175.545-.393 1.095-.774 1.586-1.225l1.509-1.286c.478-.451.93-.924 1.393-1.377l.685-.684.628-.73c.411-.49.847-.95 1.231-1.447 1.558-1.977 2.838-4.05 3.951-6.068a47.076 47.076 0 0 0 2.581-5.983c.636-1.923 1.14-3.712 1.487-5.322.345-1.607.586-3.022.718-4.181a32.97 32.97 0 0 0 .232-2.65l.016-.387a41.309 41.309 0 0 1 .005-.451l.001-.081a4.698 4.698 0 0 1 4.742-4.657 4.698 4.698 0 0 1 4.65 4.94z"/><path fill="#FFBE55" d="M750.024 640.331c1.632-3.509 7.965-17.193 8.751-20.526l.039-.167c.064-.266.14-.532.227-.796 1.661-5.001 7.061-7.708 12.062-6.048 5.001 1.661 7.709 7.061 6.048 12.062-1.558 4.69-3.173 8.583-5.071 12.712-1.294 2.732-2.709 5.409-4.185 8.058-1.632-1.25-17.883-5.269-17.871-5.295z"/><path fill="#FAB9AF" d="M771.078 705.452c7.894 6.515 40.846 5.195 53.073 4.459 3.076-.185 5.393-2.971 4.884-6.01-1.301-7.755-6.695-21.104-9.937-34.969-4.671-19.979-9.124-42.147-11.467-54.135-.967-4.945-5.692-8.219-10.662-7.396l-29.999 4.962c-4.624.765-7.89 4.935-7.508 9.606.791 9.669 2.163 26.47 3.499 42.942 1.357 16.718-.306 33.589 8.117 40.541z"/><path fill="#e75d48" d="m766.686 612.41 4.874-.806c2.347 3.648 6.44 6.09 12.012 5.169 5.581-.923 8.669-4.552 9.714-8.762l4.448-.736c4.548-.752 8.866 2.234 9.749 6.759 2.3 11.792 6.845 34.487 11.616 54.898 3.293 14.087 8.709 27.034 9.924 34.905.476 3.085-1.838 5.891-4.953 6.078-12.292.737-45.115 2.037-52.992-4.464-8.423-6.952-6.759-23.823-8.116-40.54-1.35-16.638-2.736-33.612-3.523-43.233-.369-4.508 2.783-8.53 7.247-9.268z"/><path fill="#0B4870" d="m782.618 596.039.561-.161a8.052 8.052 0 0 0 5.519-9.96l-3.281-11.437-8.3 2.381 5.501 19.177z"/><path fill="#FAB9AF" d="m775.891 612.425 14.467-1.061.51-2.081-8.472-15.214-10.047 4.278z"/><path fill="#FA968C" d="m772.349 598.347 10.047-4.278 3.403 6.111c-1.577 3.298-3.495 6.955-7.286 8.042-1.202.345-2.553.246-3.717-.097l-2.447-9.778z"/><path fill="#FAB9AF" d="M777.361 604.569c7.029-2.017 11.092-9.349 9.076-16.378l-4.068-14.178-21.828 6.263s3.175 11.067 6.908 18.081c2.801 5.261 6.329 7.24 9.912 6.212z"/><path fill="#CD5014" d="m785.628 581.015-4.102 1.177-.534-1.86 4.103-1.177z"/><path fill="#FAB9AF" d="M781.966 586.571c.794 2.766 2.761 4.629 4.395 4.16 1.634-.469 2.394-4.611 1.601-7.378-.794-2.766-2.841-3.109-4.475-2.64-1.633.469-2.314 3.092-1.521 5.858z"/><path fill="#0B4870" d="M760.7 586.54a12.76 12.76 0 0 1-1.873-5.346s-1.903-6.305.234-8.222c1.946-1.746 6.201-1.444 8.81-1.612 1.912-.123 7.366-2.117 7.366-2.117a8.338 8.338 0 0 1 10.317 5.714l.493 1.717-2.667 4.379-.083 3.63-.289.083a2.756 2.756 0 0 1-3.354-1.719c-.8-2.241-2.924-3.699-5.211-3.043l-6.539 1.876c-3.98 1.142-5.436 3.872-4.582 6.849l.926 2.46-3.548-4.649zM706.266 619.961l-1.327-3.397c2.3-3.462 3.042-7.885 1.69-12.085-2.369-7.357-11.074-11.579-18.312-8.869-7.359 2.756-11.019 10.988-8.169 18.284 1.733 4.436 5.474 7.486 9.774 8.536l1.327 3.397-37.051 14.475a6.275 6.275 0 0 0-3.562 8.128l14.344 36.716-1.971.77c-3.462-2.3-7.885-3.042-12.085-1.69-7.357 2.369-11.579 11.074-8.869 18.312 2.756 7.359 10.988 11.019 18.283 8.169 4.436-1.733 7.486-5.474 8.536-9.774l1.971-.77 14.343 36.716a6.275 6.275 0 0 0 8.128 3.562l88.449-34.553a6.275 6.275 0 0 0 3.562-8.128l-34.554-88.449a6.275 6.275 0 0 0-8.128-3.562l-36.379 14.212z"/><path fill="#FAB9AF" d="M811.423 616.036c1.26 23.74-12.036 51.901-40.015 58.762-22.238 5.499-46.167-.646-67.275-9.652a2.737 2.737 0 0 1 1.641-5.195l.036.008c29.368 6.23 66.893 10.313 80.787-16.455 7.042-13.161 5.771-29.091 5.8-26.84-.159-12.337 18.355-12.939 19.026-.628z"/><path fill="#FFBE55" d="M789.531 634.9c2.221-10.06 2.532-18.206 2.539-18.356l-.001.286 1.606-6.401s3.063-5.129 11.439-3.144c6.69 1.585 6.646 9.187 6.646 9.187.019 1.054 2.439 8.655-4.121 25.158-.001 0-18.419-5.321-18.108-6.73z"/><path fill="#FAB9AF" d="M707.375 660.36c-1.849-2.157-2.336-9.72-3.376-9.72-.748 0-.881 2.611-.897 4.079a.437.437 0 0 1-.727.323c-2.098-1.848-8.018-6.971-8.628-6.483-.618.495 2.526 4.316 3.598 5.583.032.038.033.094.002.134s-.086.052-.131.029c-1.654-.838-7.056-3.485-7.182-2.352-.12 1.077 4.576 4.072 6.41 5.198a.105.105 0 0 1-.086.191c-2.057-.608-7.35-2.078-7.469-1.12-.122.975 4.995 3.166 6.835 3.92a.105.105 0 0 1-.048.203c-1.814-.142-6.495-.443-5.774.278.891.891 12.166 4.577 14.692 4.577s2.781-4.84 2.781-4.84z"/><path fill="#0B4870" d="M294.662 471.371h480.614v4.506H294.662z"/><path fill="#FFBE55" d="M489.346 556.133h96.932v22.719h-96.932z"/><path fill="#2A94F4" d="M489.346 590.211h96.932v22.719h-96.932z" opacity=".4"/><path fill="#FFBE55" d="M489.346 624.288h96.932v22.719h-96.932z"/><path fill="#2A94F4" d="M489.346 658.366h96.932v22.719h-96.932zM325.773 497.065h425.594v24.99H325.773z" opacity=".4"/><path fill="#FFBE55" d="M521.451 509.104H391.169c-6.587 0-11.928-5.34-11.928-11.928v-30.063c0-6.588 5.34-11.928 11.928-11.928h130.282c6.587 0 11.927 5.34 11.927 11.928v30.063c.001 6.587-5.339 11.928-11.927 11.928z"/><path fill="#FFBE55" d="m501.696 500.204 8.758 8.759-8.758 8.758-8.76-8.758z"/><path fill="#F7F7F7" d="M397.55 468.835h114.166v4.228H397.55zM397.55 480.042h114.166v4.228H397.55zM397.55 491.249h114.166v4.228H397.55z"/><path fill="#FFBE55" d="M507.058 673.377v12.387h-12.387v-12.387z"/><circle cx="467.98" cy="713.75" r="48.61" fill="#e75d48"/><g fill="#F7F7F7"><path d="M453.331 713.896a3.952 3.952 0 1 1-7.904 0 3.952 3.952 0 0 1 7.904 0zM470.66 713.896a3.952 3.952 0 1 1-7.903 0 3.952 3.952 0 0 1 7.903 0zM487.989 713.896a3.952 3.952 0 1 1-7.903 0 3.952 3.952 0 0 1 7.903 0z"/></g></svg>