<svg xmlns="http://www.w3.org/2000/svg" width="5000" height="1000" preserveAspectRatio="none"><g fill="none" mask="url(&quot;#a&quot;)"><path fill="rgba(149, 207, 233, 1)" d="M0 0h5000v1000H0z"/><path fill="rgba(149, 207, 233, 1)" d="M0 110c333.4 61.4 1000.2 312.8 1667 307 666.8-5.8 1000.4-343.4 1667-336 666.6 7.4 1332.8 298.4 1666 373v546H0z"/><path fill="rgba(255, 255, 255, 1)" d="M0 928c166.8-57.4 500.4-286.2 834-287 333.6-.8 500.4 263.2 834 283 333.6 19.8 500.4-195.4 834-184 333.6 11.4 500.4 280.4 834 241 333.6-39.4 501.2-431.8 834-438 332.8-6.2 664 325.6 830 407v50H0z"/></g><defs><mask id="a"><path fill="#fff" d="M0 0h5000v1000H0z"/></mask></defs></svg>