<svg xmlns="http://www.w3.org/2000/svg" xml:space="preserve" style="enable-background:new 0 0 500 500" viewBox="0 0 500 500"><style xmlns="http://www.w3.org/2000/svg">.st1{fill-rule:evenodd;clip-rule:evenodd;fill:#d3d3d3}.st10,.st11,.st12,.st3,.st4,.st8,.st9{fill-rule:evenodd;clip-rule:evenodd;fill:#eeeeef}.st10,.st11,.st12,.st4,.st8,.st9{fill:#0b4870}.st10,.st11,.st12,.st8,.st9{fill:#fff}.st10,.st11,.st12,.st9{fill:#e7e5e4}.st10,.st11,.st12{fill:#e3e3e3}.st11,.st12{fill:#2993f2}.st12{fill:#cce9ff}</style><g xmlns="http://www.w3.org/2000/svg" id="OBJECTS"><path d="M434.9 375.2c0 10.9-8.8 19.7-19.7 19.7H84.8c-10.9 0-19.7-8.8-19.7-19.7V156.1c0-10.9 8.8-19.7 19.7-19.7h330.4c10.9 0 19.7 8.8 19.7 19.7v219.1z" style="fill-rule:evenodd;clip-rule:evenodd;fill:#1e0f00"/><path d="M20.1 373.7v4.8c0 10.4 11 18.9 24.5 18.9h410.9c13.5 0 24.5-8.5 24.5-18.9v-4.8H20.1z" class="st1"/><path d="M79.6 152.9v200.6h339.1V169.6H79.6z" style="fill-rule:evenodd;clip-rule:evenodd;fill:#e75d48"/><path d="M319.5 187.9h91.7v122.4h-91.7z" class="st3"/><path d="M79.6 152.9h339.1v16.7H79.6z" class="st4"/><path d="M100.1 152.9h208.4v190.2H100.1z" class="st3"/><path d="M455.5 404.3zm-411.1 0zm411.2 0zm.2 0c-.1 0-.1 0 0 0-.1 0-.1 0 0 0zm.1 0c-.1 0-.1 0 0 0-.1 0-.1 0 0 0zm11.2-2.9c-3.4 1.8-7.2 2.9-11.2 2.9 4 0 7.9-1.1 11.2-2.9zm.1-.1c0 .1 0 .1 0 0 0 .1 0 .1 0 0zm.1 0s-.1 0-.1.1c0-.1.1-.1.1-.1zm.1-.1c0 .1-.1.1 0 0-.1.1 0 .1 0 0zm.1 0c-.1 0-.1 0 0 0-.1 0-.1 0 0 0zm.1-.1c-.1 0-.1.1 0 0-.1.1-.1 0 0 0zm0 0z" style="fill-rule:evenodd;clip-rule:evenodd;fill:#535671"/><path d="M477.6 386.5H22.4c3.9 6.4 12.3 10.8 22 10.8H455.8c4.1-.1 7.9-.9 11.2-2.3h.4c4.6-2.1 8-5 10.2-8.5z" style="fill-rule:evenodd;clip-rule:evenodd;fill:#66646d"/><path d="M314.3 184.4h92.2v120.9h-92.2z" style="fill-rule:evenodd;clip-rule:evenodd;fill:#0e538b"/><path d="M323.5 197h23.1v1.4h-23.1zM323.5 200.5h12.2v1.4h-12.2zM323.5 204.1h19.7v1.4h-19.7zM332.6 211.2h11.5v1.4h-11.5zM340.6 214.8h11.2v1.4h-11.2zM339.7 200.5h20.8v1.4h-20.8zM363.5 200.5h9.9v1.4h-9.9zM377.2 200.5h13.4v1.4h-13.4zM346.4 204.1h11.7v1.4h-11.7zM344.1 207.7h-11.5v1.4h21.7v-1.4zM347.6 211.2h11.5v1.4h-11.5zM357.5 207.7h12.8v1.4h-12.8zM372.8 207.7h6.7v1.4h-6.7zM382.3 207.7h8.3v1.4h-8.3zM361.6 211.2h14.5v1.4h-14.5zM378.3 211.2h4.3v1.4h-4.3zM354.9 214.8h8.3v1.4h-8.3zM332.6 222h11.5v1.4h-11.5zM332.6 225.5h11.5v1.4h-11.5zM347.6 225.5h10.3v1.4h-10.3zM359.1 222h-11.5v1.4h19.7V222zM369.2 222h5.2v1.4h-5.2zM376.6 222h6.4v1.4h-6.4zM368 225.5h11.5v1.4H368zM332.6 229.1h11.5v1.4h-11.5zM332.6 232.7h11.5v1.4h-11.5zM347.6 229.1h6.7v1.4h-6.7zM347.6 232.7h21v1.4h-21zM370.2 229.1h-12.7v1.4h22v-1.4zM382.3 229.1h8.3v1.4h-8.3zM371.2 232.7H383v1.4h-11.8zM360.2 225.5h4.9v1.4h-4.9zM323.5 239.8h12.2v1.4h-12.2zM323.5 243.4h19.7v1.4h-19.7zM332.6 247h11.5v1.4h-11.5zM332.6 250.5h11.5v1.5h-11.5zM356.4 239.8h-16.7v1.5h20.4v-1.5zM363.8 239.8h18.5v1.4h-18.5zM346.4 243.4h11.7v1.4h-11.7zM347.6 250.5h8.9v1.5h-8.9zM365.3 247h-17.7v1.4h26V247zM359.1 250.5h17v1.5h-17zM378.3 250.5h4.3v1.5h-4.3zM354.9 254.1h8.3v1.4h-8.3z" class="st8"/><path d="M351.7 254.1h-11.1v1.4h39.9v-1.4zM382.8 254.1h4.6v1.4h-4.6zM332.6 261.2h11.5v1.4h-11.5zM332.6 264.8h11.5v1.4h-11.5zM347.6 261.2h18.9v1.4h-18.9zM347.6 264.8h10.3v1.4h-10.3zM369.2 261.2h5.2v1.4h-5.2zM376.6 261.2h6.4v1.4h-6.4zM368 264.8h11.5v1.4H368zM360.2 264.8h4.9v1.4h-4.9zM323.5 270.7h12.2v1.4h-12.2zM323.5 274.2h19.7v1.4h-19.7zM332.6 277.8h11.5v1.4h-11.5zM332.6 281.4h11.5v1.4h-11.5zM340.6 284.9h11.2v1.4h-11.2zM339.7 270.7h11.5v1.4h-11.5zM366.3 270.7h-12.1v1.4h36.4v-1.4zM346.4 274.2h11.7v1.4h-11.7zM347.6 281.4h8.9v1.4h-8.9zM365 277.8h-17.4v1.4h26v-1.4zM376.1 277.8h5.9v1.4h-5.9zM384.9 277.8h5.7v1.4h-5.7zM359.1 281.4h17v1.4h-17zM378.3 281.4h4.3v1.4h-4.3zM354.9 284.9h8.3v1.4h-8.3zM332.6 295.7h11.5v1.4h-11.5zM344.1 292.1h-11.5v1.4h33.9v-1.4zM347.6 295.7h10.3v1.4h-10.3zM369.2 292.1h5.2v1.4h-5.2zM376.6 292.1h6.4v1.4h-6.4zM368 295.7h11.5v1.4H368zM360.2 295.7h4.9v1.4h-4.9z" class="st8"/><path d="M314.3 184.4h92.2v7.2h-92.2z" class="st4"/><path d="M402 187.5c0 1-.8 1.9-1.9 1.9-1 0-1.9-.8-1.9-1.9 0-1 .8-1.9 1.9-1.9 1.1 0 1.9.9 1.9 1.9zM395.8 187.5c0 1-.8 1.9-1.9 1.9-1 0-1.9-.8-1.9-1.9 0-1 .8-1.9 1.9-1.9 1 0 1.9.9 1.9 1.9z" class="st9"/><path d="M93.9 95.7h210.5v242.7H93.9z" class="st8"/><path d="M93.9 95.7h210.5v11.7H93.9z" class="st4"/><path d="M298.5 101.2c0 1.5-1.3 2.8-2.8 2.8-1.5 0-2.8-1.3-2.8-2.8 0-1.5 1.3-2.8 2.8-2.8 1.6 0 2.8 1.3 2.8 2.8zM289.2 101.2c0 1.5-1.3 2.8-2.8 2.8-1.6 0-2.8-1.3-2.8-2.8 0-1.5 1.3-2.8 2.8-2.8 1.5 0 2.8 1.3 2.8 2.8z" class="st9"/><path d="M93.9 128.5h210.5v13.7H93.9z" class="st4"/><path d="M228.1 132.3h64.5v6h-64.5z" class="st8"/><path d="M108.2 133.3h18.9v4h-18.9zM128.6 133.3h18.9v4h-18.9zM149.1 133.3H168v4h-18.9zM169.5 133.3h18.9v4h-18.9z" class="st10"/><path d="M135.6 162.5h38.3v31.1h-38.3z" class="st11"/><path d="M296.8 133c-.8 0-1.5.7-1.5 1.5s.7 1.5 1.5 1.5 1.5-.7 1.5-1.5-.7-1.5-1.5-1.5zm-1.4.2c.8-.8 2.1-.8 2.8 0 .8.8.8 2 0 2.8-.8.8-2.1.8-2.8 0-.8-.8-.8-2.1 0-2.8zM298.6 136.7l-.4-.4c.1-.1.2-.1.2-.2.1-.1.2-.2.2-.3l.5.4-.5.5zM300.9 138c.2.2.2.4 0 .6-.2.2-.4.2-.6 0l-1.8-1.7.6-.6 1.8 1.7z" class="st8"/><path d="M296.7 135.8c.1 0 .3 0 .4-.1.1 0 .1-.1.1-.2s-.1-.1-.2-.1-.2.1-.3.1c-.3 0-.5-.2-.6-.4 0-.1-.1-.1-.2-.1s-.1.1-.1.2c.1.4.5.6.9.6z" class="st8"/><path d="M178.2 162.3h38.3v31.1h-38.3z" class="st4"/><path d="M220.9 162.1h38.3v31.1h-38.3z" class="st12"/><path d="M110.7 299.2h54.9v2.7h-54.9zM110.7 304.1h54.9v2.7h-54.9zM110.7 309h54.9v2.7h-54.9zM110.7 313.9h54.9v2.7h-54.9zM110.7 318.8h54.9v2.7h-54.9zM110.7 323.7h54.9v2.7h-54.9zM110.7 328.6h54.9v2.7h-54.9zM172.4 299.2h54.9v2.7h-54.9zM172.4 304.1h54.9v2.7h-54.9zM172.4 309h54.9v2.7h-54.9zM172.4 313.9h54.9v2.7h-54.9zM172.4 318.8h54.9v2.7h-54.9zM172.4 323.7h54.9v2.7h-54.9zM172.4 328.6h54.9v2.7h-54.9zM234.4 299.2h54.9v2.7h-54.9zM234.4 304.1h54.9v2.7h-54.9zM234.4 309h54.9v2.7h-54.9zM234.4 313.9h54.9v2.7h-54.9zM234.4 318.8h54.9v2.7h-54.9zM234.4 323.7h54.9v2.7h-54.9zM234.4 328.6h54.9v2.7h-54.9z" class="st1"/><path d="M93.9 213.7h210.5v65.7H93.9z" class="st4"/><path d="M113.6 224.6h54.3v44h-54.3z" class="st10"/><path d="M181.9 240h86.8v1.4h-86.8zM181.9 243.6h86.8v1.4h-86.8zM181.9 247.2h86.8v1.4h-86.8zM181.9 250.7h57.2v1.4h-57.2z" class="st8"/><path d="m96.3 246.6 2.6-1.5 2.6-1.5v6l-2.6-1.5zM302 246.6l-2.6-1.5-2.6-1.5v6l2.6-1.5z" class="st10"/><path d="M110.7 282.5h54.9v14.2h-54.9z" class="st11"/><path d="M172.4 283.1h54.9v14.2h-54.9z" class="st12"/><path d="M234.4 283.3h54.9v14.2h-54.9z" class="st4"/></g></svg>